<?xml version="1.0" standalone="no"?>
<!DOCTYPE svg PUBLIC "-//W3C//DTD SVG 20010904//EN"
 "http://www.w3.org/TR/2001/REC-SVG-20010904/DTD/svg10.dtd">
<svg version="1.0" xmlns="http://www.w3.org/2000/svg"
 width="768.000000pt" height="768.000000pt" viewBox="0 0 768.000000 768.000000"
 preserveAspectRatio="xMidYMid meet">

<g transform="translate(0.000000,768.000000) scale(0.100000,-0.100000)"
fill="#ffffff" stroke="none">
<path d="M1577 5172 l-1317 -1317 0 -538 0 -537 1320 0 1320 0 0 -660 0 -660
655 0 655 0 0 1195 0 1195 -1312 2 -1312 3 1313 1318 1313 1317 -658 0 -659 0
-1318 -1318z"/>
<path d="M4780 5828 l0 -663 660 660 660 660 0 -660 0 -660 -660 -660 -660
-660 0 -657 0 -658 660 0 660 0 0 658 0 657 660 660 660 660 0 662 0 663
-1320 0 -1320 0 0 -662z"/>
<path d="M6760 3185 l-655 -655 658 0 657 0 0 655 c0 360 -1 655 -3 655 -1 0
-297 -295 -657 -655z"/>
</g>
</svg>
